<svg xmlns="http://www.w3.org/2000/svg" width="31.786" height="22.257" viewBox="0 0 31.786 22.257">
  <g id="Group_3475" data-name="Group 3475" transform="translate(-1490.295 -790.971)">
    <g id="Group_3119" data-name="Group 3119" transform="translate(1490.295 790.971)">
      <g id="Group_3117" data-name="Group 3117" transform="translate(1.574 1.128)">
        <path id="Path_4308" data-name="Path 4308" d="M-2787.588,1218.029a20.926,20.926,0,0,1,12.442-.327,13.389,13.389,0,0,1,5.079,3.041c.079.067.4.684-.268.152a10.609,10.609,0,0,0-2.2-1.454,4.642,4.642,0,0,1,1.534,2.074c.073.651-.906.813-1.206.784s-.789-1.43-1.1-1.87c-.1-.144-.2-.011-.1.216a4.2,4.2,0,0,1,.293,1.168c.007.135.011.251-.057.27s-.325.041-.889-.726a17.164,17.164,0,0,0-1.949-2.378,8.771,8.771,0,0,0-5.208-1.448,6.572,6.572,0,0,1,2.129,1.239A22.455,22.455,0,0,0-2787.588,1218.029Z" transform="translate(2794.424 -1216.914)" fill="#fff"/>
        <path id="Path_4309" data-name="Path 4309" d="M-2635.152,1302.432c.435-.434,1.259-1.435,1.259-1.435a6.8,6.8,0,0,0,1.652-.918,4.049,4.049,0,0,1-.926,1.062,5.512,5.512,0,0,0,1.528-.9,4.291,4.291,0,0,1-1.147,1.587A3.888,3.888,0,0,1-2635.152,1302.432Z" transform="translate(2660.747 -1289.845)" fill="#fff"/>
        <path id="Path_4310" data-name="Path 4310" d="M-2733.517,1273.487c.517-.537,1.3-1.165,1.36-1.484a2.77,2.77,0,0,0-1.059-2.36c.023.3.1,1.42.16,1.566a10.318,10.318,0,0,0-1.059-1.2c-.559-.546-1.289-1.052-1.31-1.217-.039-.3.4-.464.4-.464-2.343-.753-4.332-1.737-6.908-.686s-5.512,4.042-4.708,6.961c.055.229.228.8.61.639a8.652,8.652,0,0,1,2.84-.822,14.249,14.249,0,0,1,5.464.37c.152.051.227.183.141.254a8.862,8.862,0,0,0-2.681.165,5.364,5.364,0,0,1,1.391,3.807,6.084,6.084,0,0,0,2.291-1.223c-.042.227-.293.676-1.091,1.37a6.589,6.589,0,0,0,2.8-1.735c-.067.377-.681,1.24-2.055,2.076a4.344,4.344,0,0,0,2.469-1.111,3.3,3.3,0,0,0,1.12-1.711c.59.082.844-.062.884-.339s-.32-.783-.75-1.083a17.54,17.54,0,0,0-7.264-1.984c-4.052-.294-5.608,1.136-5.608,1.136a7.829,7.829,0,0,1,7.318-6.688,4.815,4.815,0,0,0,1.125,3.75,7.133,7.133,0,0,0,1.3-1.144,4.871,4.871,0,0,1,.036,2.032A5.573,5.573,0,0,0-2733.517,1273.487Z" transform="translate(2758.634 -1260.999)" fill="#fff"/>
        <path id="Path_4311" data-name="Path 4311" d="M-2832.064,1237.237a6.238,6.238,0,0,0,.278,3.705,6.493,6.493,0,0,0-1.654,2.514,5.937,5.937,0,0,1-2.348-4.323,6.479,6.479,0,0,0,.205,3.57,6.953,6.953,0,0,0-.681,1.266c-1.626-1.407-3.917-3.075-3.6-8.111a13.136,13.136,0,0,0-1.165,2.648,10.74,10.74,0,0,1-2.107-5.7,13.5,13.5,0,0,1,2.779-2.278,5.118,5.118,0,0,1-2.321-2.623c.347-.316,1.667-.9,6.036.331a2.821,2.821,0,0,1-1.034.152c-.219-.019-2.639-.508-3.247-.149-.537.317-.009.736.052.744l1.326.2a.843.843,0,0,0-.162.833,3.037,3.037,0,0,1,1.39-.1,5.129,5.129,0,0,0-1.6,2,9.943,9.943,0,0,1,5.152-1.809c-1.767.7-4.45,1.942-5.071,4.765a9.3,9.3,0,0,1,6.341-2.3c-.687.326-2.873,1.629-3.433,2.927a3.462,3.462,0,0,0-.057,2.518,3.78,3.78,0,0,1,1.529-2.1,8.136,8.136,0,0,1,3-1.1,4.707,4.707,0,0,0-.829,5.1C-2833.082,1238.564-2832.668,1237.549-2832.064,1237.237Z" transform="translate(2843.134 -1226.188)" fill="#fff"/>
      </g>
      <path id="Path_4312" data-name="Path 4312" d="M-2824.233,1217.315c-.355-.782-2.525-1.661-3.1-1.882a8.435,8.435,0,0,1-.5-1.26.648.648,0,0,0,.05-.175c0-.021.005-.044.006-.068l.006-.084-.027-.08c-.527-1.553-3.648-3.573-4.862-4.154l-.06-.029a18.042,18.042,0,0,0-7.315-1.773,24.063,24.063,0,0,0-9.287,1.015l-.865.244c-3.685-.575-5.08-.059-5.6.481l-.1.1-.025.162c-.2,1.382.849,2.634,1.916,3.524a14.821,14.821,0,0,0-1.623,1.7l-.056.1v.113a16.178,16.178,0,0,0,2.716,8.711,10.265,10.265,0,0,0,1.039,1.284c.01-.538.064-1.473.118-1.893l.023-.138a.3.3,0,0,1,.007-.033,11.292,11.292,0,0,0,4.3,6.181l.785.641v-.98a3.838,3.838,0,0,1,.042-.542,5.2,5.2,0,0,1,.293-1.11,5.975,5.975,0,0,0,2.064,1.555l.814.33-.159-.823a3.83,3.83,0,0,1,.313-2.365,4.155,4.155,0,0,1,2.588-1.929,4.412,4.412,0,0,1,3.107.419c1.427.825,2.009,3.074,1.833,4.773l-.065.632.653-.154a14.417,14.417,0,0,0,7.466-4.228,5.063,5.063,0,0,1,.4-.365,2.567,2.567,0,0,0,.446-.446,1.137,1.137,0,0,0,.178-.472,1.312,1.312,0,0,0-.091-.667,3.918,3.918,0,0,0,1.188-2.125,3.223,3.223,0,0,0,.775-1.045,7.089,7.089,0,0,0,.654-2.031A2.2,2.2,0,0,0-2824.233,1217.315Zm-1.033,2.961a2.561,2.561,0,0,1-.771.987,3.5,3.5,0,0,1-1.355,2.25.88.88,0,0,1,.107,1.014c-.132.195-.5.439-.8.757a13.972,13.972,0,0,1-7.225,4.091c.19-1.836-.46-4.273-2.059-5.2a4.713,4.713,0,0,0-6.352,1.665,4.247,4.247,0,0,0-.371,2.673,5.725,5.725,0,0,1-2.326-2,4.848,4.848,0,0,0-.736,2.513,10.561,10.561,0,0,1-4.5-8.076,9.167,9.167,0,0,0-.659,3.116,15.664,15.664,0,0,1-2.882-8.814,21.469,21.469,0,0,1,1.908-1.94c-1.28-.968-2.339-2.217-2.146-3.461.264-.276,1.29-.962,5.277-.324a25.072,25.072,0,0,1,10.09-1.27,17.551,17.551,0,0,1,7.188,1.754c1.285.616,4.172,2.565,4.623,3.891-.011.183-.105.114-.06.317a6.262,6.262,0,0,0,.668,1.58c.81.287,2.728,1.163,2.968,1.691A4.514,4.514,0,0,1-2825.266,1220.276Z" transform="translate(2855.924 -1207.749)" fill="#fff"/>
      <path id="Path_4313" data-name="Path 4313" d="M-2730.857,1284.906a5,5,0,0,0-1.711-.019,7.3,7.3,0,0,0-1.9,1.112,4.34,4.34,0,0,0-.008.845,4.316,4.316,0,0,1,2.581-1.5c-.015.1-.183.994-.293,1.709a14.184,14.184,0,0,1,1.859-1.132c-.133-.227-.254-.456-.358-.68C-2730.754,1285.085-2730.857,1284.906-2730.857,1284.906Zm.912,1.605a10.055,10.055,0,0,0-.177,1.4c.1-.072.621-.39.845-.555A8.69,8.69,0,0,1-2729.946,1286.511Zm.482,1.977c.4.081.81.18,1.244.3a8.91,8.91,0,0,0,.476-1.882A14.968,14.968,0,0,1-2729.464,1288.488Zm-2.954-.871a5.7,5.7,0,0,1-.032-1.581,9.95,9.95,0,0,0-2.337,1.977,5.742,5.742,0,0,1-.179-1.563,6.855,6.855,0,0,0-1.639,2.587,12.276,12.276,0,0,1,6.018-.736c0-.323.035-1.35.087-1.8C-2730.5,1286.5-2731.633,1287.12-2732.418,1287.616Z" transform="translate(2751.288 -1275.331)" fill="#fff"/>
      <path id="Path_4314" data-name="Path 4314" d="M-2633.414,1322.1a3.865,3.865,0,0,1,.805.573,3.165,3.165,0,0,0,1.146-1.352A11.689,11.689,0,0,1-2633.414,1322.1Z" transform="translate(2660.797 -1307.343)" fill="#fff"/>
      <path id="Path_4315" data-name="Path 4315" d="M-2714.066,1247.014l-.373.515a10.064,10.064,0,0,1,1.471.092A7.194,7.194,0,0,0-2714.066,1247.014Zm-2.667-1.093c-.481-.086.487,1.184.887,1.653.065-.012.647-.045,1.317-.045l-.49-.944C-2715.729,1246.281-2716.415,1246.017-2716.733,1245.921Z" transform="translate(2733.977 -1241.22)" fill="#fff"/>
      <path id="Path_4316" data-name="Path 4316" d="M-2648.676,1263.362l-.177.021-.4.591.792.2A1.307,1.307,0,0,0-2648.676,1263.362Zm-1.547.166a1.382,1.382,0,0,0,.228.256l.646.165-.27-.48C-2649.853,1263.495-2650.077,1263.517-2650.223,1263.528Z" transform="translate(2675.537 -1256.518)" fill="#fff"/>
      <g id="Group_3118" data-name="Group 3118" transform="translate(25.127 20.757)">
        <path id="Path_4317" data-name="Path 4317" d="M-2651.742,1376.416h.389v.057h-.162v.441h-.066v-.441h-.162Zm.543.132v.366h-.063v-.5h.063l.16.322.161-.322h.062v.5h-.063v-.366l-.131.267h-.055Z" transform="translate(2651.742 -1376.416)" fill="#fff"/>
      </g>
    </g>
  </g>
</svg>
